# Blender v2.79 (sub 0) OBJ File: ''
# www.blender.org
mtllib lamp.mtl
o Circle.002
v 0.000000 0.000000 -1.000000
v -0.294755 0.000000 -0.955573
v -0.563320 0.000000 -0.826239
v -0.781832 0.000000 -0.623490
v -0.930874 0.000000 -0.365341
v -0.997204 0.000000 -0.074730
v -0.974928 0.000000 0.222521
v -0.866025 0.000000 0.500000
v -0.680173 0.000000 0.733052
v -0.433884 0.000000 0.900969
v -0.149042 0.000000 0.988831
v 0.149042 0.000000 0.988831
v 0.433884 0.000000 0.900969
v 0.680173 0.000000 0.733052
v 0.866025 0.000000 0.500000
v 0.974928 0.000000 0.222521
v 0.997204 0.000000 -0.074730
v 0.930874 0.000000 -0.365341
v 0.781832 0.000000 -0.623489
v 0.563321 0.000000 -0.826238
v 0.294756 0.000000 -0.955572
v 0.000000 0.103947 -1.000000
v -0.294755 0.103947 -0.955573
v -0.563320 0.103947 -0.826239
v -0.781832 0.103947 -0.623490
v -0.930874 0.103947 -0.365341
v -0.997204 0.103947 -0.074730
v -0.974928 0.103947 0.222521
v -0.866025 0.103947 0.500000
v -0.680173 0.103947 0.733052
v -0.433884 0.103947 0.900969
v -0.149042 0.103947 0.988831
v 0.149042 0.103947 0.988831
v 0.433884 0.103947 0.900969
v 0.680173 0.103947 0.733052
v 0.866025 0.103947 0.500000
v 0.974928 0.103947 0.222521
v 0.997204 0.103947 -0.074730
v 0.930874 0.103947 -0.365341
v 0.781832 0.103947 -0.623489
v 0.563321 0.103947 -0.826238
v 0.294756 0.103947 -0.955572
v 0.000000 0.103947 -0.183234
v -0.054009 0.103947 -0.175094
v -0.103219 0.103947 -0.151395
v -0.143258 0.103947 -0.114245
v -0.170568 0.103947 -0.066943
v -0.182722 0.103947 -0.013693
v -0.178640 0.103947 0.040774
v -0.158685 0.103947 0.091617
v -0.124631 0.103947 0.134320
v -0.079502 0.103947 0.165088
v -0.027309 0.103947 0.181188
v 0.027310 0.103947 0.181188
v 0.079502 0.103947 0.165088
v 0.124631 0.103947 0.134320
v 0.158686 0.103947 0.091617
v 0.178640 0.103947 0.040774
v 0.182722 0.103947 -0.013693
v 0.170568 0.103947 -0.066943
v 0.143258 0.103947 -0.114244
v 0.103220 0.103947 -0.151395
v 0.054010 0.103947 -0.175093
v 0.000000 3.945342 -0.183234
v -0.054009 3.945342 -0.175094
v -0.103219 3.945342 -0.151395
v -0.143258 3.945342 -0.114245
v -0.170568 3.945342 -0.066943
v -0.182722 3.945342 -0.013693
v -0.178640 3.945342 0.040774
v -0.158685 3.945342 0.091617
v -0.124631 3.945342 0.134320
v -0.079502 3.945342 0.165088
v -0.027309 3.945342 0.181188
v 0.027310 3.945342 0.181188
v 0.079502 3.945342 0.165088
v 0.124631 3.945342 0.134320
v 0.158686 3.945342 0.091617
v 0.178640 3.945342 0.040774
v 0.182722 3.945342 -0.013693
v 0.170568 3.945342 -0.066943
v 0.143258 3.945342 -0.114244
v 0.103220 3.945342 -0.151395
v 0.054010 3.945342 -0.175093
v 0.000000 3.850082 -0.328803
v -0.096916 3.850082 -0.314195
v -0.185221 3.850082 -0.271670
v -0.257068 3.850082 -0.205005
v -0.306074 3.850082 -0.120125
v -0.327883 3.850082 -0.024571
v -0.320559 3.850082 0.073166
v -0.284752 3.850082 0.164402
v -0.223643 3.850082 0.241030
v -0.142662 3.850082 0.296241
v -0.049005 3.850082 0.325131
v 0.049006 3.850082 0.325131
v 0.142662 3.850082 0.296241
v 0.223643 3.850082 0.241030
v 0.284752 3.850082 0.164402
v 0.320559 3.850082 0.073166
v 0.327884 3.850082 -0.024571
v 0.306074 3.850082 -0.120125
v 0.257069 3.850082 -0.205005
v 0.185222 3.850082 -0.271670
v 0.096917 3.850082 -0.314195
v -0.000000 1.659116 -1.560961
v -0.460102 1.659116 -1.491613
v -0.879321 1.659116 -1.289727
v -1.220409 1.659116 -0.973244
v -1.453058 1.659116 -0.570283
v -1.556597 1.659116 -0.116651
v -1.521825 1.659116 0.347347
v -1.351833 1.659116 0.780481
v -1.061723 1.659116 1.144265
v -0.677276 1.659116 1.406378
v -0.232649 1.659116 1.543527
v 0.232649 1.659116 1.543527
v 0.677276 1.659116 1.406378
v 1.061724 1.659116 1.144265
v 1.351832 1.659116 0.780480
v 1.521825 1.659116 0.347347
v 1.556597 1.659116 -0.116650
v 1.453058 1.659116 -0.570283
v 1.220409 1.659116 -0.973243
v 0.879322 1.659116 -1.289726
v 0.460103 1.659116 -1.491612
vt 0.252492 0.039816
vt 0.242578 0.039816
vt 0.242578 0.062991
vt 0.252492 0.062991
vt 0.183096 0.039816
vt 0.173182 0.039816
vt 0.173182 0.062991
vt 0.183096 0.062991
vt 0.113701 0.039816
vt 0.103787 0.039816
vt 0.103787 0.062991
vt 0.113701 0.062991
vt 0.262405 0.039816
vt 0.262405 0.062991
vt 0.193010 0.039816
vt 0.193010 0.062991
vt 0.123614 0.039816
vt 0.123614 0.062991
vt 0.272319 0.039816
vt 0.272319 0.062991
vt 0.202923 0.039816
vt 0.202923 0.062991
vt 0.133528 0.039816
vt 0.133528 0.062991
vt 0.282232 0.039816
vt 0.282232 0.062991
vt 0.212837 0.039816
vt 0.212837 0.062991
vt 0.143441 0.039816
vt 0.143441 0.062991
vt 0.292146 0.039816
vt 0.292146 0.062991
vt 0.222751 0.039816
vt 0.222751 0.062991
vt 0.153355 0.039816
vt 0.153355 0.062991
vt 0.302060 0.039816
vt 0.302060 0.062991
vt 0.232664 0.039816
vt 0.232664 0.062991
vt 0.163269 0.039816
vt 0.163269 0.062991
vt 0.311973 0.039816
vt 0.311973 0.062991
vt 0.252492 0.062991
vt 0.262405 0.062991
vt 0.183096 0.062991
vt 0.193010 0.062991
vt 0.113700 0.062991
vt 0.123614 0.062991
vt 0.272319 0.062991
vt 0.202923 0.062991
vt 0.133528 0.062991
vt 0.282232 0.062991
vt 0.212837 0.062991
vt 0.143441 0.062991
vt 0.292146 0.062991
vt 0.222751 0.062991
vt 0.153355 0.062991
vt 0.302060 0.062991
vt 0.232664 0.062991
vt 0.163269 0.062991
vt 0.311973 0.062991
vt 0.242578 0.062991
vt 0.173182 0.062991
vt 0.321887 0.062991
vt 0.321887 0.062991
vt 0.202923 0.919420
vt 0.212837 0.919420
vt 0.133528 0.919420
vt 0.143441 0.919420
vt 0.282232 0.919420
vt 0.292146 0.919420
vt 0.222751 0.919420
vt 0.153355 0.919420
vt 0.302060 0.919420
vt 0.232664 0.919420
vt 0.163269 0.919420
vt 0.311973 0.919420
vt 0.242578 0.919420
vt 0.173182 0.919420
vt 0.252492 0.919420
vt 0.183096 0.919420
vt 0.321887 0.919420
vt 0.262405 0.919420
vt 0.193010 0.919420
vt 0.113700 0.919420
vt 0.123614 0.919420
vt 0.272319 0.919420
vt 0.836326 0.535695
vt 0.845314 0.545713
vt 0.605913 0.794366
vt 0.563246 0.746807
vt 0.905956 0.387307
vt 0.892576 0.388763
vt 0.830285 0.049262
vt 0.893804 0.042353
vt 0.828895 0.434244
vt 0.823177 0.446428
vt 0.500824 0.323022
vt 0.527965 0.265180
vt 0.828895 0.524474
vt 0.527965 0.693538
vt 0.892576 0.569956
vt 0.905956 0.571411
vt 0.893803 0.916365
vt 0.830285 0.909457
vt 0.836326 0.423024
vt 0.563246 0.211912
vt 0.823177 0.512290
vt 0.500824 0.635696
vt 0.879551 0.566566
vt 0.768451 0.893366
vt 0.845314 0.413006
vt 0.605913 0.164353
vt 0.819297 0.499403
vt 0.482401 0.574517
vt 0.867159 0.561315
vt 0.709623 0.868436
vt 0.855665 0.404404
vt 0.655055 0.123519
vt 0.817336 0.486088
vt 0.473090 0.511306
vt 0.855665 0.554314
vt 0.655055 0.835200
vt 0.867159 0.397403
vt 0.709623 0.090282
vt 0.817336 0.472630
vt 0.473090 0.447413
vt 0.879551 0.392152
vt 0.768452 0.065353
vt 0.819297 0.459315
vt 0.482401 0.384202
vt 0.411110 0.919420
vt 0.401196 0.919420
vt 0.391282 0.919420
vt 0.381369 0.919420
vt 0.371455 0.919420
vt 0.361541 0.919420
vt 0.351628 0.919420
vt 0.341714 0.919420
vt 0.331800 0.919420
vn -0.9749 0.0000 -0.2225
vn -0.8660 0.0000 -0.5000
vn 0.6802 0.0000 -0.7331
vn 0.8660 0.0000 -0.5000
vn 0.2948 0.0000 0.9556
vn -0.0000 0.0000 1.0000
vn -0.9972 0.0000 0.0747
vn 0.4339 0.0000 -0.9010
vn 0.5633 0.0000 0.8262
vn -0.9309 0.0000 0.3653
vn 0.1490 0.0000 -0.9888
vn 0.7818 0.0000 0.6235
vn -0.7818 0.0000 0.6235
vn -0.1490 0.0000 -0.9888
vn 0.9309 0.0000 0.3653
vn -0.5633 0.0000 0.8262
vn -0.4339 0.0000 -0.9010
vn 0.9972 0.0000 0.0747
vn -0.2948 0.0000 0.9556
vn -0.6802 0.0000 -0.7331
vn 0.9749 0.0000 -0.2225
vn 0.0000 -1.0000 -0.0000
vn -0.2569 0.4902 -0.8329
vn 0.0000 0.4902 -0.8716
vn 0.8692 0.4902 -0.0651
vn 0.8498 0.4902 0.1940
vn -0.3782 0.4902 0.7853
vn -0.5929 0.4902 0.6389
vn -0.4910 0.4902 -0.7202
vn 0.8114 0.4902 -0.3184
vn -0.1299 0.4902 0.8619
vn -0.6815 0.4902 -0.5434
vn 0.6815 0.4902 -0.5434
vn 0.1299 0.4902 0.8619
vn -0.8114 0.4902 -0.3184
vn 0.4910 0.4902 -0.7202
vn 0.3782 0.4902 0.7853
vn -0.8692 0.4902 -0.0651
vn 0.2569 0.4902 -0.8329
vn 0.5929 0.4902 0.6389
vn -0.8498 0.4902 0.1940
vn 0.7548 0.4902 0.4358
vn -0.7548 0.4902 0.4358
usemtl lamp
s 1
f 16/1/1 15/2/2 36/3/2 37/4/1
f 9/5/3 8/6/4 29/7/4 30/8/3
f 2/9/5 1/10/6 22/11/6 23/12/5
f 17/13/7 16/1/1 37/4/1 38/14/7
f 10/15/8 9/5/3 30/8/3 31/16/8
f 3/17/9 2/9/5 23/12/5 24/18/9
f 18/19/10 17/13/7 38/14/7 39/20/10
f 11/21/11 10/15/8 31/16/8 32/22/11
f 4/23/12 3/17/9 24/18/9 25/24/12
f 19/25/13 18/19/10 39/20/10 40/26/13
f 12/27/14 11/21/11 32/22/11 33/28/14
f 5/29/15 4/23/12 25/24/12 26/30/15
f 20/31/16 19/25/13 40/26/13 41/32/16
f 13/33/17 12/27/14 33/28/14 34/34/17
f 6/35/18 5/29/15 26/30/15 27/36/18
f 21/37/19 20/31/16 41/32/16 42/38/19
f 14/39/20 13/33/17 34/34/17 35/40/20
f 7/41/21 6/35/18 27/36/18 28/42/21
f 1/43/6 21/37/19 42/38/19 22/44/6
f 15/2/2 14/39/20 35/40/20 36/3/2
f 8/6/4 7/41/21 28/42/21 29/7/4
f 38/14/22 37/4/22 58/45/22 59/46/22
f 31/16/22 30/8/22 51/47/22 52/48/22
f 24/18/22 23/12/22 44/49/22 45/50/22
f 39/20/22 38/14/22 59/46/22 60/51/22
f 32/22/22 31/16/22 52/48/22 53/52/22
f 25/24/22 24/18/22 45/50/22 46/53/22
f 40/26/22 39/20/22 60/51/22 61/54/22
f 33/28/22 32/22/22 53/52/22 54/55/22
f 26/30/22 25/24/22 46/53/22 47/56/22
f 41/32/22 40/26/22 61/54/22 62/57/22
f 34/34/22 33/28/22 54/55/22 55/58/22
f 27/36/22 26/30/22 47/56/22 48/59/22
f 42/38/22 41/32/22 62/57/22 63/60/22
f 35/40/22 34/34/22 55/58/22 56/61/22
f 28/42/22 27/36/22 48/59/22 49/62/22
f 22/44/22 42/38/22 63/60/22 43/63/22
f 36/3/22 35/40/22 56/61/22 57/64/22
f 29/7/22 28/42/22 49/62/22 50/65/22
f 37/4/22 36/3/22 57/64/22 58/45/22
f 30/8/22 29/7/22 50/65/22 51/47/22
f 23/66/22 22/44/22 43/63/22 44/67/22
f 54/55/14 53/52/11 74/68/11 75/69/14
f 47/56/15 46/53/12 67/70/12 68/71/15
f 62/57/16 61/54/13 82/72/13 83/73/16
f 55/58/17 54/55/14 75/69/14 76/74/17
f 48/59/18 47/56/15 68/71/15 69/75/18
f 63/60/19 62/57/16 83/73/16 84/76/19
f 56/61/20 55/58/17 76/74/17 77/77/20
f 49/62/21 48/59/18 69/75/18 70/78/21
f 43/63/6 63/60/19 84/76/19 64/79/6
f 57/64/2 56/61/20 77/77/20 78/80/2
f 50/65/4 49/62/21 70/78/21 71/81/4
f 58/45/1 57/64/2 78/80/2 79/82/1
f 51/47/3 50/65/4 71/81/4 72/83/3
f 44/67/5 43/63/6 64/79/6 65/84/5
f 59/46/7 58/45/1 79/82/1 80/85/7
f 52/48/8 51/47/3 72/83/3 73/86/8
f 45/50/9 44/49/5 65/87/5 66/88/9
f 60/51/10 59/46/7 80/85/7 81/89/10
f 53/52/11 52/48/8 73/86/8 74/68/11
f 46/53/12 45/50/9 66/88/9 67/70/12
f 61/54/13 60/51/10 81/89/10 82/72/13
f 86/90/23 85/91/24 106/92/24 107/93/23
f 101/94/25 100/95/26 121/96/26 122/97/25
f 94/98/27 93/99/28 114/100/28 115/101/27
f 87/102/29 86/90/23 107/93/23 108/103/29
f 102/104/30 101/105/25 122/106/25 123/107/30
f 95/108/31 94/98/27 115/101/27 116/109/31
f 88/110/32 87/102/29 108/103/29 109/111/32
f 103/112/33 102/104/30 123/107/30 124/113/33
f 96/114/34 95/108/31 116/109/31 117/115/34
f 89/116/35 88/110/32 109/111/32 110/117/35
f 104/118/36 103/112/33 124/113/33 125/119/36
f 97/120/37 96/114/34 117/115/34 118/121/37
f 90/122/38 89/116/35 110/117/35 111/123/38
f 105/124/39 104/118/36 125/119/36 126/125/39
f 98/126/40 97/120/37 118/121/37 119/127/40
f 91/128/41 90/122/38 111/123/38 112/129/41
f 85/91/24 105/124/39 126/125/39 106/92/24
f 99/130/42 98/126/40 119/127/40 120/131/42
f 92/132/43 91/128/41 112/129/41 113/133/43
f 100/95/26 99/130/42 120/131/42 121/96/26
f 93/99/28 92/132/43 113/133/43 114/100/28
f 65/84/22 64/79/22 84/76/22 83/73/22 82/72/22 81/89/22 80/85/22 79/82/22 78/80/22 77/77/22 76/74/22 75/69/22 74/134/22 73/135/22 72/136/22 71/137/22 70/138/22 69/139/22 68/140/22 67/141/22 66/142/22
